<svg width="24" height="24" viewBox="0 0 56 56" fill="none" xmlns="http://www.w3.org/2000/svg">
    <path d="M56 24.4076V53.9817C56 55.0939 55.1041 55.9964 54.0001 55.9964H30.0016C28.8977 55.9964 28.0018 55.0939 28.0018 53.9817V48.4741C28.1111 41.7228 28.8201 35.2558 30.3085 32.3137C31.2009 30.5442 32.6717 29.5812 34.3612 29.066C37.5532 28.0995 43.1543 28.7604 45.5315 28.6467C45.5315 28.6467 52.7127 28.9345 52.7127 24.8376C52.7127 21.5401 49.5031 21.7995 49.5031 21.7995C45.9654 21.8919 43.2706 21.6503 41.5247 20.9574C38.6007 19.799 38.502 17.6741 38.4914 16.9635C38.3468 8.75533 26.3334 7.77107 15.7486 9.80711C4.1761 12.0244 15.8755 28.7355 15.8755 51.0431V54.0208C15.8544 55.1152 14.9761 56 13.8827 56H1.99987C0.895887 56 0 55.0975 0 53.9853V2.83553C0 1.72335 0.895887 0.820813 1.99987 0.820813H13.1702C14.2742 0.820813 15.1701 1.72335 15.1701 2.83553C15.1701 4.48782 17.0148 5.40812 18.3481 4.44518C22.3654 1.54569 27.5221 0 33.2924 0C46.2193 0 55.993 7.58985 55.993 24.4076H56ZM34.541 18.4061C34.541 16.0254 32.6258 14.0959 30.2626 14.0959C27.8995 14.0959 25.9843 16.0254 25.9843 18.4061C25.9843 20.7868 27.8995 22.7162 30.2626 22.7162C32.6258 22.7162 34.541 20.7868 34.541 18.4061Z" fill="#a366c5"/>
</svg>